<svg width="87" height="19" viewBox="0 0 87 19" fill="none" xmlns="http://www.w3.org/2000/svg">
<path id="Vector" d="M14.4723 11.2584H15.2184L14.9347 10.5683L11.833 3.02193L11.3691 1.89335L10.9077 3.02292L7.82483 10.5693L7.54332 11.2584H8.2877H14.4723ZM36.3157 13.0319L41.6296 0.5H48.341V18.4244H44.6991L44.6809 4.10318L43.7237 3.90127L37.2889 18.4244H33.9675L27.5102 3.88575L26.5532 4.0887V18.4244H18.181L16.5686 14.5129L16.4411 14.2035H16.1063H6.6763H6.34298L6.21477 14.5111L4.58407 18.4244H0.758249L8.43962 0.5H14.5061L22.0774 18.1167L23.0368 17.9193V0.5H29.6081L35.4014 13.0463L35.8748 14.0716L36.3157 13.0319ZM55.5507 15.0549V15.5549H56.0507H67.1829H67.4005L67.5488 15.3957L72.7234 9.84081L73.0351 9.50616L72.7295 9.1659L67.7743 3.64879L67.6253 3.4829H67.4023H56.0507H55.5507V3.9829V7.42542V7.92542H56.0507H65.4914V10.7874H56.0507H55.5507V11.2874V15.0549ZM81.3021 0.568018H85.8523L77.8317 9.19353L77.52 9.52878L77.8265 9.8688L85.6075 18.5H81.0701L75.6437 12.3986L75.2773 11.9866L74.903 12.3915L69.2565 18.5H52.038V0.568018H69.5283L74.9511 6.60694L75.3169 7.01437L75.6895 6.61307L81.3021 0.568018Z" fill="black" stroke="white"/>
</svg>
