<svg width="21" height="21" viewBox="0 0 21 21" fill="none" xmlns="http://www.w3.org/2000/svg">
<path id="Vector" d="M10.3086 0.5C15.8316 0.5 20.3086 4.977 20.3086 10.5C20.3086 16.023 15.8316 20.5 10.3086 20.5C8.54139 20.5029 6.80526 20.0352 5.27861 19.145L0.312608 20.5L1.66461 15.532C0.773701 14.0049 0.305655 12.268 0.308608 10.5C0.308608 4.977 4.78561 0.5 10.3086 0.5ZM6.90061 5.8L6.70061 5.808C6.57113 5.81589 6.44459 5.8499 6.32861 5.908C6.22013 5.96943 6.1211 6.04622 6.03461 6.136C5.91461 6.249 5.84661 6.347 5.77361 6.442C5.40373 6.9229 5.20458 7.51331 5.20761 8.12C5.20961 8.61 5.33761 9.087 5.53761 9.533C5.94661 10.435 6.61961 11.39 7.50761 12.275C7.72161 12.488 7.93161 12.702 8.15761 12.901C9.261 13.8725 10.5759 14.573 11.9976 14.947L12.5656 15.034C12.7506 15.044 12.9356 15.03 13.1216 15.021C13.4128 15.006 13.6972 14.9271 13.9546 14.79C14.0856 14.7225 14.2134 14.6491 14.3376 14.57C14.3376 14.57 14.3806 14.542 14.4626 14.48C14.5976 14.38 14.6806 14.309 14.7926 14.192C14.8756 14.106 14.9476 14.005 15.0026 13.89C15.0806 13.727 15.1586 13.416 15.1906 13.157C15.2146 12.959 15.2076 12.851 15.2046 12.784C15.2006 12.677 15.1116 12.566 15.0146 12.519L14.4326 12.258C14.4326 12.258 13.5626 11.879 13.0306 11.637C12.9749 11.6127 12.9153 11.5988 12.8546 11.596C12.7862 11.589 12.7171 11.5967 12.6519 11.6186C12.5867 11.6405 12.5269 11.6761 12.4766 11.723C12.4716 11.721 12.4046 11.778 11.6816 12.654C11.6401 12.7098 11.5829 12.7519 11.5174 12.7751C11.4519 12.7982 11.3809 12.8013 11.3136 12.784C11.2485 12.7665 11.1846 12.7445 11.1226 12.718C10.9986 12.666 10.9556 12.646 10.8706 12.61C10.2967 12.3595 9.7653 12.0211 9.29561 11.607C9.16961 11.497 9.05261 11.377 8.93261 11.261C8.53919 10.8842 8.19633 10.458 7.91261 9.993L7.85361 9.898C7.81123 9.83416 7.77697 9.7653 7.75161 9.693C7.71361 9.546 7.81261 9.428 7.81261 9.428C7.81261 9.428 8.05561 9.162 8.16861 9.018C8.27861 8.878 8.37161 8.742 8.43161 8.645C8.54961 8.455 8.58661 8.26 8.52461 8.109C8.24461 7.425 7.95461 6.744 7.65661 6.068C7.59761 5.934 7.42261 5.838 7.26361 5.819C7.20961 5.813 7.15561 5.807 7.10161 5.803C6.96731 5.79633 6.83274 5.79766 6.69861 5.807L6.89961 5.799L6.90061 5.8Z" fill="#0D7CFF"/>
</svg>
