<svg width="21" height="21" viewBox="0 0 21 21" fill="none" xmlns="http://www.w3.org/2000/svg">
<path id="Vector" d="M16.8086 16.825C17.339 16.825 17.8477 17.0357 18.2228 17.4108C18.5979 17.7859 18.8086 18.2946 18.8086 18.825C18.8086 19.3554 18.5979 19.8641 18.2228 20.2392C17.8477 20.6143 17.339 20.825 16.8086 20.825C16.2782 20.825 15.7695 20.6143 15.3944 20.2392C15.0193 19.8641 14.8086 19.3554 14.8086 18.825C14.8086 17.715 15.6986 16.825 16.8086 16.825ZM0.808594 0.824997H4.07859L5.01859 2.825H19.8086C20.0738 2.825 20.3282 2.93035 20.5157 3.11789C20.7032 3.30543 20.8086 3.55978 20.8086 3.825C20.8086 3.995 20.7586 4.165 20.6886 4.325L17.1086 10.795C16.7686 11.405 16.1086 11.825 15.3586 11.825H7.90859L7.00859 13.455L6.97859 13.575C6.97859 13.6413 7.00493 13.7049 7.05182 13.7518C7.0987 13.7987 7.16229 13.825 7.22859 13.825H18.8086V15.825H6.80859C6.27816 15.825 5.76945 15.6143 5.39438 15.2392C5.01931 14.8641 4.80859 14.3554 4.80859 13.825C4.80859 13.475 4.89859 13.145 5.04859 12.865L6.40859 10.415L2.80859 2.825H0.808594V0.824997ZM6.80859 16.825C7.33903 16.825 7.84773 17.0357 8.22281 17.4108C8.59788 17.7859 8.80859 18.2946 8.80859 18.825C8.80859 19.3554 8.59788 19.8641 8.22281 20.2392C7.84773 20.6143 7.33903 20.825 6.80859 20.825C6.27816 20.825 5.76945 20.6143 5.39438 20.2392C5.01931 19.8641 4.80859 19.3554 4.80859 18.825C4.80859 17.715 5.69859 16.825 6.80859 16.825ZM15.8086 9.825L18.5886 4.825H5.94859L8.30859 9.825H15.8086Z" fill="#123864"/>
</svg>
