<svg width="18" height="17" viewBox="0 0 18 17" fill="none" xmlns="http://www.w3.org/2000/svg">
<path id="Vector" d="M16.4856 16.71L10.2236 10.448C9.72359 10.874 9.14859 11.2037 8.49859 11.437C7.84859 11.6703 7.19526 11.787 6.53859 11.787C4.93726 11.787 3.58193 11.2327 2.47259 10.124C1.36326 9.01466 0.808594 7.65966 0.808594 6.059C0.808594 4.45833 1.36259 3.10266 2.47059 1.992C3.57926 0.880663 4.93393 0.324997 6.53459 0.324997C8.13593 0.324997 9.49193 0.879664 10.6026 1.989C11.7133 3.09833 12.2686 4.454 12.2686 6.056C12.2686 6.75066 12.1456 7.423 11.8996 8.073C11.6529 8.723 11.3296 9.279 10.9296 9.741L17.1916 16.002L16.4846 16.71H16.4856ZM6.53859 10.786C7.86526 10.786 8.98559 10.3293 9.89959 9.416C10.8129 8.50266 11.2696 7.38233 11.2696 6.055C11.2696 4.72833 10.8129 3.60833 9.89959 2.695C8.98626 1.78166 7.86626 1.325 6.53959 1.325C5.21293 1.325 4.09259 1.78166 3.17859 2.695C2.26526 3.60833 1.80859 4.72833 1.80859 6.055C1.80859 7.38166 2.26526 8.50166 3.17859 9.415C4.09193 10.3283 5.21193 10.786 6.53859 10.786Z" fill="#123864"/>
</svg>
