<svg width="18" height="19" viewBox="0 0 18 19" fill="none" xmlns="http://www.w3.org/2000/svg">
<g id="tabler:edit">
<g id="Group">
<path id="Vector" d="M5.25 5.75H4.5C4.10218 5.75 3.72064 5.90804 3.43934 6.18934C3.15804 6.47064 3 6.85218 3 7.25V14C3 14.3978 3.15804 14.7794 3.43934 15.0607C3.72064 15.342 4.10218 15.5 4.5 15.5H11.25C11.6478 15.5 12.0294 15.342 12.3107 15.0607C12.592 14.7794 12.75 14.3978 12.75 14V13.25" stroke="#636372" stroke-opacity="0.5" stroke-width="2" stroke-linecap="round" stroke-linejoin="round"/>
<path id="Vector_2" d="M12 4.25L14.25 6.5M15.2888 5.43875C15.5841 5.14336 15.7501 4.74273 15.7501 4.325C15.7501 3.90726 15.5841 3.50663 15.2888 3.21125C14.9934 2.91586 14.5927 2.74992 14.175 2.74992C13.7573 2.74992 13.3566 2.91586 13.0613 3.21125L6.75 9.5V11.75H9L15.2888 5.43875Z" stroke="#636372" stroke-opacity="0.5" stroke-width="2" stroke-linecap="round" stroke-linejoin="round"/>
</g>
</g>
</svg>
