<svg width="21" height="19" viewBox="0 0 21 19" fill="none" xmlns="http://www.w3.org/2000/svg">
<path id="Vector" d="M10.1917 18.675L8.74165 17.375C7.05832 15.8583 5.66665 14.55 4.56665 13.45C3.46665 12.35 2.59165 11.3623 1.94165 10.487C1.29165 9.61233 0.83765 8.80833 0.57965 8.075C0.32165 7.34166 0.192317 6.59166 0.19165 5.825C0.19165 4.25833 0.71665 2.95 1.76665 1.9C2.81665 0.849997 4.12498 0.324997 5.69165 0.324997C6.55832 0.324997 7.38332 0.50833 8.16665 0.874997C8.94998 1.24166 9.62498 1.75833 10.1917 2.425C10.7583 1.75833 11.4333 1.24166 12.2167 0.874997C13 0.50833 13.825 0.324997 14.6917 0.324997C16.2583 0.324997 17.5667 0.849997 18.6166 1.9C19.6666 2.95 20.1917 4.25833 20.1917 5.825C20.1917 6.59166 20.0627 7.34166 19.8047 8.075C19.5467 8.80833 19.0923 9.61233 18.4417 10.487C17.7917 11.3623 16.9167 12.35 15.8167 13.45C14.7167 14.55 13.325 15.8583 11.6417 17.375L10.1917 18.675ZM10.1917 15.975C11.7917 14.5417 13.1083 13.3127 14.1417 12.288C15.175 11.2633 15.9916 10.3717 16.5917 9.613C17.1917 8.85433 17.6083 8.179 17.8417 7.587C18.075 6.995 18.1917 6.40766 18.1917 5.825C18.1917 4.825 17.8583 3.99166 17.1917 3.325C16.525 2.65833 15.6917 2.325 14.6917 2.325C13.9083 2.325 13.1833 2.54566 12.5167 2.987C11.85 3.42833 11.3917 3.991 11.1417 4.675H9.24165C8.99165 3.99166 8.53332 3.42933 7.86665 2.988C7.19998 2.54666 6.47498 2.32566 5.69165 2.325C4.69165 2.325 3.85832 2.65833 3.19165 3.325C2.52498 3.99166 2.19165 4.825 2.19165 5.825C2.19165 6.40833 2.30832 6.996 2.54165 7.588C2.77498 8.18 3.19165 8.855 3.79165 9.613C4.39165 10.371 5.20832 11.2627 6.24165 12.288C7.27498 13.3133 8.59165 14.5423 10.1917 15.975Z" fill="#123864"/>
</svg>
