<svg width="12" height="10" viewBox="0 0 12 10" fill="none" xmlns="http://www.w3.org/2000/svg">
<path id="Vector" d="M6 10L5.49467 9.57198C4.40667 8.64055 3.50667 7.84304 2.79467 7.17945C2.08267 6.51629 1.52067 5.93143 1.10867 5.42489C0.697111 4.91794 0.409333 4.45951 0.245333 4.04961C0.0817778 3.6393 0 3.22669 0 2.8118C0 2.017 0.288 1.34966 0.864 0.809798C1.44 0.269933 2.152 0 3 0C3.58667 0 4.13667 0.14059 4.65 0.421769C5.16333 0.702949 5.61333 1.11181 6 1.64834C6.38667 1.11181 6.83667 0.702949 7.35 0.421769C7.86333 0.14059 8.41333 0 9 0C9.848 0 10.56 0.269933 11.136 0.809798C11.712 1.34966 12 2.017 12 2.8118C12 3.22669 11.9182 3.63909 11.7547 4.04899C11.5907 4.4593 11.3029 4.91794 10.8913 5.42489C10.4793 5.93143 9.91933 6.51629 9.21133 7.17945C8.50378 7.84304 7.60156 8.64076 6.50467 9.57261L6 10ZM6 9.15396C7.06667 8.25002 7.94444 7.47605 8.63333 6.83204C9.32222 6.18762 9.86667 5.62838 10.2667 5.15434C10.6667 4.68029 10.9444 4.2606 11.1 3.89528C11.2556 3.52953 11.3333 3.16837 11.3333 2.8118C11.3333 2.18695 11.1111 1.66625 10.6667 1.24969C10.2222 0.833125 9.66667 0.624844 9 0.624844C8.46933 0.624844 7.97956 0.766891 7.53067 1.05099C7.08178 1.33467 6.68 1.76227 6.32533 2.33379H5.67467C5.31111 1.75477 4.90711 1.32509 4.46267 1.04474C4.01822 0.764809 3.53067 0.624844 3 0.624844C2.34222 0.624844 1.78889 0.833125 1.34 1.24969C0.891111 1.66625 0.666667 2.18695 0.666667 2.8118C0.666667 3.16837 0.744444 3.52953 0.9 3.89528C1.05556 4.26102 1.33333 4.68071 1.73333 5.15434C2.13333 5.62797 2.67778 6.18512 3.36667 6.82579C4.05556 7.46647 4.93333 8.24252 6 9.15396Z" fill="#96EACC"/>
</svg>
