<svg width="34" height="44" viewBox="0 0 34 44" fill="none" xmlns="http://www.w3.org/2000/svg">
<g id="mingcute:menu-fill">
<g id="Group">
<path id="Vector" d="M28.3333 29.7917C28.879 29.792 29.4037 30.0022 29.7987 30.3788C30.1936 30.7554 30.4286 31.2695 30.4548 31.8146C30.481 32.3597 30.2965 32.894 29.9395 33.3067C29.5826 33.7195 29.0805 33.9791 28.5373 34.0318L28.3333 34.0417H5.66663C5.1209 34.0414 4.5962 33.8312 4.20124 33.4546C3.80629 33.078 3.57136 32.5639 3.54513 32.0188C3.51891 31.4737 3.7034 30.9394 4.06037 30.5267C4.41735 30.1139 4.91945 29.8543 5.46263 29.8016L5.66663 29.7917H28.3333ZM28.3333 19.875C28.8969 19.875 29.4374 20.0989 29.8359 20.4974C30.2344 20.896 30.4583 21.4365 30.4583 22C30.4583 22.5636 30.2344 23.1041 29.8359 23.5026C29.4374 23.9012 28.8969 24.125 28.3333 24.125H5.66663C5.10304 24.125 4.56254 23.9012 4.16402 23.5026C3.76551 23.1041 3.54163 22.5636 3.54163 22C3.54163 21.4365 3.76551 20.896 4.16402 20.4974C4.56254 20.0989 5.10304 19.875 5.66663 19.875H28.3333ZM28.3333 9.95837C28.8969 9.95837 29.4374 10.1823 29.8359 10.5808C30.2344 10.9793 30.4583 11.5198 30.4583 12.0834C30.4583 12.647 30.2344 13.1875 29.8359 13.586C29.4374 13.9845 28.8969 14.2084 28.3333 14.2084H5.66663C5.10304 14.2084 4.56254 13.9845 4.16402 13.586C3.76551 13.1875 3.54163 12.647 3.54163 12.0834C3.54163 11.5198 3.76551 10.9793 4.16402 10.5808C4.56254 10.1823 5.10304 9.95837 5.66663 9.95837H28.3333Z" fill="#154332"/>
</g>
</g>
</svg>
