<svg width="22" height="21" viewBox="0 0 22 21" fill="none" xmlns="http://www.w3.org/2000/svg">
<path id="Vector" d="M0.5 10.5C0.5 12.5767 1.11581 14.6068 2.26957 16.3335C3.42332 18.0602 5.0632 19.406 6.98182 20.2007C8.90045 20.9954 11.0116 21.2034 13.0484 20.7982C15.0852 20.3931 16.9562 19.3931 18.4246 17.9246C19.8931 16.4562 20.8931 14.5852 21.2982 12.5484C21.7034 10.5116 21.4954 8.40045 20.7007 6.48182C19.906 4.5632 18.5602 2.92332 16.8335 1.76957C15.1068 0.615814 13.0767 0 11 0C8.21523 0 5.54451 1.10625 3.57538 3.07538C1.60625 5.04451 0.5 7.71523 0.5 10.5ZM5 9.75H14.1125L9.9275 5.54475L11 4.5L17 10.5L11 16.5L9.9275 15.4297L14.1125 11.25H5V9.75Z" fill="white"/>
</svg>
