<svg width="21" height="20" viewBox="0 0 21 20" fill="none" xmlns="http://www.w3.org/2000/svg">
<g id="Icon / Phone">
<path id="Vector" d="M14.6667 17.5005C13.2886 17.4992 11.9319 17.1587 10.7167 16.5088L10.3417 16.3005C7.75063 14.9074 5.62641 12.7832 4.23333 10.1922L4.025 9.81715C3.35818 8.59498 3.00594 7.22605 3 5.8338V5.27547C2.99965 4.83127 3.17663 4.4053 3.49167 4.09213L4.9 2.6838C5.03678 2.54597 5.22984 2.47953 5.42247 2.50402C5.61509 2.5285 5.7854 2.64113 5.88333 2.8088L7.75833 6.02547C7.94794 6.35288 7.89319 6.76693 7.625 7.0338L6.05 8.60882C5.9192 8.73815 5.88873 8.93798 5.975 9.10048L6.26667 9.65048C7.3142 11.5908 8.90775 13.1815 10.85 14.2255L11.4 14.5255C11.5625 14.6117 11.7623 14.5812 11.8917 14.4505L13.4667 12.8755C13.7335 12.6073 14.1476 12.5526 14.475 12.7422L17.6917 14.6172C17.8593 14.7151 17.972 14.8854 17.9964 15.078C18.0209 15.2707 17.9545 15.4637 17.8167 15.6005L16.4083 17.0088C16.0952 17.3238 15.6692 17.5008 15.225 17.5005H14.6667Z" fill="black"/>
</g>
</svg>
