<svg width="21" height="20" viewBox="0 0 21 20" fill="none" xmlns="http://www.w3.org/2000/svg">
<g id="Icon / Pin">
<path id="Vector" d="M10.5002 1.66602C7.17185 1.66602 4.46411 4.37377 4.46411 7.70202C4.46411 11.8325 9.86574 17.8963 10.0957 18.1523C10.3117 18.3929 10.6889 18.3925 10.9046 18.1523C11.1345 17.8963 16.5362 11.8325 16.5362 7.70202C16.5361 4.37377 13.8284 1.66602 10.5002 1.66602ZM10.5002 10.7389C8.82559 10.7389 7.46329 9.3766 7.46329 7.70202C7.46329 6.02747 8.82563 4.66517 10.5002 4.66517C12.1747 4.66517 13.537 6.02751 13.537 7.70205C13.537 9.3766 12.1747 10.7389 10.5002 10.7389Z" fill="black"/>
</g>
</svg>
