<svg width="17" height="17" viewBox="0 0 17 17" fill="none" xmlns="http://www.w3.org/2000/svg">
<path id="Vector" d="M15.677 16.885L9.415 10.623C8.915 11.049 8.34 11.3787 7.69 11.612C7.04 11.8453 6.38667 11.962 5.73 11.962C4.12867 11.962 2.77333 11.4077 1.664 10.299C0.554667 9.18967 0 7.83467 0 6.234C0 4.63333 0.554 3.27767 1.662 2.167C2.77067 1.05567 4.12533 0.5 5.726 0.5C7.32733 0.5 8.68333 1.05467 9.794 2.164C10.9047 3.27333 11.46 4.629 11.46 6.231C11.46 6.92567 11.337 7.598 11.091 8.248C10.8443 8.898 10.521 9.454 10.121 9.916L16.383 16.177L15.676 16.885H15.677ZM5.73 10.961C7.05667 10.961 8.177 10.5043 9.091 9.591C10.0043 8.67767 10.461 7.55733 10.461 6.23C10.461 4.90333 10.0043 3.78333 9.091 2.87C8.17767 1.95667 7.05767 1.5 5.731 1.5C4.40433 1.5 3.284 1.95667 2.37 2.87C1.45667 3.78333 1 4.90333 1 6.23C1 7.55667 1.45667 8.67667 2.37 9.59C3.28333 10.5033 4.40333 10.961 5.73 10.961Z" fill="black" fill-opacity="0.25"/>
</svg>
