<svg width="16" height="16" viewBox="0 0 16 16" fill="none" xmlns="http://www.w3.org/2000/svg">
<path id="Vector" d="M7.25672 0.986272C7.53172 0.337909 8.46832 0.337909 8.74332 0.986274L10.3663 4.81303C10.4823 5.08637 10.7445 5.27313 11.0454 5.29678L15.2582 5.62799C15.9719 5.68411 16.2614 6.55763 15.7175 7.01446L12.5079 9.7107C12.2786 9.90331 12.1784 10.2055 12.2485 10.4934L13.2291 14.5249C13.3952 15.2079 12.6375 15.7478 12.0264 15.3818L8.41965 13.2214C8.16202 13.0671 7.83802 13.0671 7.5804 13.2214L3.9736 15.3818C3.3625 15.7478 2.60477 15.2079 2.77091 14.5249L3.75155 10.4934C3.82159 10.2055 3.72147 9.90331 3.49221 9.7107L0.28245 7.01446C-0.261375 6.55763 0.0280544 5.68411 0.741835 5.62799L4.9547 5.29678C5.25561 5.27313 5.51774 5.08637 5.63367 4.81303L7.25672 0.986272Z" fill="#FF9A03"/>
</svg>
