<svg width="16" height="16" viewBox="0 0 16 16" fill="none" xmlns="http://www.w3.org/2000/svg">
<g id="teenyicons:instagram-solid" clip-path="url(#clip0_259_164)">
<path id="Vector" d="M7.99998 5.59961C7.36346 5.59961 6.75301 5.85247 6.30292 6.30255C5.85283 6.75264 5.59998 7.36309 5.59998 7.99961C5.59998 8.63613 5.85283 9.24658 6.30292 9.69667C6.75301 10.1468 7.36346 10.3996 7.99998 10.3996C8.6365 10.3996 9.24694 10.1468 9.69703 9.69667C10.1471 9.24658 10.4 8.63613 10.4 7.99961C10.4 7.36309 10.1471 6.75264 9.69703 6.30255C9.24694 5.85247 8.6365 5.59961 7.99998 5.59961Z" fill="white"/>
<path id="Vector_2" fill-rule="evenodd" clip-rule="evenodd" d="M5.11999 0.799805C3.97425 0.799805 2.87544 1.25495 2.06529 2.0651C1.25513 2.87526 0.799988 3.97407 0.799988 5.1198L0.799988 10.8798C0.799988 12.0255 1.25513 13.1243 2.06529 13.9345C2.87544 14.7447 3.97425 15.1998 5.11999 15.1998H10.88C12.0257 15.1998 13.1245 14.7447 13.9347 13.9345C14.7448 13.1243 15.2 12.0255 15.2 10.8798V5.1198C15.2 3.97407 14.7448 2.87526 13.9347 2.0651C13.1245 1.25495 12.0257 0.799805 10.88 0.799805L5.11999 0.799805ZM4.63999 7.9998C4.63999 7.10868 4.99399 6.25405 5.62411 5.62393C6.25423 4.9938 7.10886 4.6398 7.99999 4.6398C8.89112 4.6398 9.74574 4.9938 10.3759 5.62393C11.006 6.25405 11.36 7.10868 11.36 7.9998C11.36 8.89093 11.006 9.74556 10.3759 10.3757C9.74574 11.0058 8.89112 11.3598 7.99999 11.3598C7.10886 11.3598 6.25423 11.0058 5.62411 10.3757C4.99399 9.74556 4.63999 8.89093 4.63999 7.9998ZM11.36 4.6398H12.32V3.6798H11.36V4.6398Z" fill="white"/>
</g>
<defs>
<clipPath id="clip0_259_164">
<rect width="14.4" height="14.4" fill="white" transform="translate(0.799988 0.799805)"/>
</clipPath>
</defs>
</svg>
