<svg width="36" height="36" viewBox="0 0 36 36" fill="none" xmlns="http://www.w3.org/2000/svg">
<g id="Twitter">
<circle id="Ellipse 3" cx="18" cy="18" r="18" fill="#0D7CFF"/>
<path id="Vector" d="M25.1999 19.2885V25.1999H21.9403V19.671C21.9403 18.1179 21.386 17.3413 20.2773 17.3413C19.4569 17.3413 18.8914 17.7585 18.581 18.5931C18.5145 18.7554 18.4812 19.0335 18.4812 19.4276V25.1999H15.1884C15.2106 18.964 15.2106 15.5215 15.1884 14.8724H18.4812V16.3329L18.4479 16.3676H18.4812V16.3329C19.1908 15.1969 20.1775 14.629 21.4414 14.629C22.5723 14.629 23.4814 15.0231 24.1688 15.8113C24.8562 16.5994 25.1999 17.7585 25.1999 19.2885ZM11.7625 9.8999C11.2082 9.8999 10.7591 10.068 10.4154 10.4041C10.0718 10.7402 9.8999 11.1633 9.8999 11.6733C9.8999 12.1833 10.0662 12.6122 10.3988 12.9599C10.7314 13.3076 11.1638 13.4815 11.696 13.4815H11.7293C12.2836 13.4815 12.7326 13.3076 13.0763 12.9599C13.42 12.6122 13.5919 12.1833 13.5919 11.6733C13.5697 11.1633 13.3923 10.7402 13.0597 10.4041C12.7271 10.068 12.2947 9.8999 11.7625 9.8999ZM10.0662 25.1999H13.359V14.8724H10.0662V25.1999Z" fill="white"/>
</g>
</svg>
