<svg width="36" height="36" viewBox="0 0 36 36" fill="none" xmlns="http://www.w3.org/2000/svg">
<g id="Twitter">
<circle id="Ellipse 3" cx="18" cy="18" r="18" fill="#2D6C55"/>
<path id="Vector" d="M25.2 19.2885V25.1999H21.9405V19.671C21.9405 18.1179 21.3861 17.3413 20.2774 17.3413C19.457 17.3413 18.8915 17.7585 18.5811 18.5931C18.5146 18.7554 18.4813 19.0335 18.4813 19.4276V25.1999H15.1885C15.2107 18.964 15.2107 15.5215 15.1885 14.8724H18.4813V16.3329L18.4481 16.3676H18.4813V16.3329C19.1909 15.1969 20.1776 14.629 21.4415 14.629C22.5724 14.629 23.4815 15.0231 24.1689 15.8113C24.8563 16.5994 25.2 17.7585 25.2 19.2885ZM11.7626 9.8999C11.2083 9.8999 10.7593 10.068 10.4156 10.4041C10.0719 10.7402 9.90002 11.1633 9.90002 11.6733C9.90002 12.1833 10.0663 12.6122 10.3989 12.9599C10.7315 13.3076 11.1639 13.4815 11.6961 13.4815H11.7294C12.2837 13.4815 12.7327 13.3076 13.0764 12.9599C13.4201 12.6122 13.592 12.1833 13.592 11.6733C13.5698 11.1633 13.3924 10.7402 13.0598 10.4041C12.7272 10.068 12.2948 9.8999 11.7626 9.8999ZM10.0663 25.1999H13.3592V14.8724H10.0663V25.1999Z" fill="white"/>
</g>
</svg>
