<svg width="79" height="79" viewBox="0 0 79 79" fill="none" xmlns="http://www.w3.org/2000/svg">
<path id="Vector" fill-rule="evenodd" clip-rule="evenodd" d="M39.5 79C44.6872 79 49.8236 77.9783 54.616 75.9932C59.4084 74.0082 63.7628 71.0986 67.4307 67.4307C71.0986 63.7628 74.0082 59.4084 75.9932 54.616C77.9783 49.8236 79 44.6872 79 39.5C79 34.3128 77.9783 29.1764 75.9932 24.384C74.0082 19.5916 71.0986 15.2372 67.4307 11.5693C63.7628 7.90137 59.4084 4.99182 54.616 3.00676C49.8236 1.0217 44.6872 -7.72955e-08 39.5 0C29.0239 1.56105e-07 18.977 4.16159 11.5693 11.5693C4.1616 18.977 0 29.0239 0 39.5C0 49.9761 4.1616 60.023 11.5693 67.4307C18.977 74.8384 29.0239 79 39.5 79ZM34.1587 21.9006L58.9296 35.6641C59.6135 36.0443 60.1833 36.6004 60.5799 37.2749C60.9766 37.9493 61.1858 38.7175 61.1858 39.5C61.1858 40.2825 60.9766 41.0507 60.5799 41.7251C60.1833 42.3996 59.6135 42.9557 58.9296 43.3359L34.1587 57.0994C33.3567 57.5453 32.452 57.7738 31.5344 57.7624C30.6169 57.7509 29.7182 57.5 28.9275 57.0343C28.1367 56.5687 27.4814 55.9045 27.0264 55.1076C26.5714 54.3107 26.3325 53.4088 26.3333 52.4911V26.5089C26.3325 25.5912 26.5714 24.6893 27.0264 23.8924C27.4814 23.0955 28.1367 22.4313 28.9275 21.9657C29.7182 21.5 30.6169 21.2491 31.5344 21.2376C32.452 21.2262 33.3567 21.4547 34.1587 21.9006Z" fill="white" fill-opacity="0.7"/>
</svg>
