<svg width="66" height="21" viewBox="0 0 66 21" fill="none" xmlns="http://www.w3.org/2000/svg">
<path id="Vector" d="M34.1336 6.71346C34.096 9.63884 36.7795 11.2712 38.801 12.2419C40.878 13.2377 41.5756 13.8763 41.5674 14.7669C41.5519 16.1298 39.9107 16.7313 38.3749 16.7547C35.6954 16.7956 34.1375 16.0419 32.8989 15.4718L31.9337 19.9222C33.1763 20.4864 35.4773 20.9784 37.8634 21C43.4644 21 47.1286 18.2758 47.1485 14.0521C47.1704 8.69157 39.6235 8.39487 39.675 5.99887C39.6928 5.27235 40.3964 4.49706 41.9381 4.29993C42.7012 4.20036 44.8078 4.12415 47.1962 5.20783L48.1336 0.902054C46.8492 0.441246 45.1984 0 43.1431 0C37.8714 0 34.1635 2.76129 34.1336 6.71346ZM57.141 0.37088C56.1183 0.37088 55.2564 0.9587 54.8718 1.86075L46.8711 20.6837H52.4679L53.5817 17.6509H60.4209L61.067 20.6837H66L61.6953 0.37088H57.141ZM57.924 5.85814L59.5392 13.4858H55.1157L57.924 5.85814ZM27.3477 0.371134L22.936 20.6835H28.2694L32.679 0.370626L27.3477 0.371134ZM19.4579 0.371134L13.9067 14.1966L11.6611 2.44096C11.3976 1.12865 10.3571 0.37088 9.20159 0.37088H0.127102L0 0.960733C1.86295 1.35905 3.97959 2.00149 5.26195 2.68889C6.04673 3.1088 6.27052 3.47587 6.52833 4.47369L10.7815 20.6837H16.4175L25.0583 0.37088L19.4579 0.371134Z" fill="url(#paint0_linear_234_1587)"/>
<defs>
<linearGradient id="paint0_linear_234_1587" x1="3034.28" y1="63.126" x2="3094.18" y2="-2093.65" gradientUnits="userSpaceOnUse">
<stop stop-color="#222357"/>
<stop offset="1" stop-color="#254AA5"/>
</linearGradient>
</defs>
</svg>
